<svg width="32" height="32" viewBox="0 0 32 32" fill="none" xmlns="http://www.w3.org/2000/svg">
<g opacity="0.5">
<rect x="6.39966" y="5" width="12.8" height="3.20001" fill="black"/>
<rect x="3.19971" y="8.19995" width="3.20001" height="3.20001" fill="black"/>
<rect y="11.3997" width="3.20001" height="3.20001" fill="black"/>
<rect y="14.5997" width="3.20001" height="3.20001" fill="black"/>
<rect x="6.39966" y="24.1994" width="12.8" height="3.20001" fill="black"/>
<rect width="3.20001" height="3.20001" transform="matrix(-1 0 0 1 22.3992 8.19995)" fill="black"/>
<rect width="3.20001" height="3.20001" transform="matrix(-1 0 0 1 31.9991 17.7997)" fill="black"/>
<rect width="3.20001" height="3.20001" transform="matrix(-1 0 0 1 28.7991 8.19995)" fill="black"/>
<rect width="3.20001" height="3.20001" transform="matrix(-1 0 0 1 25.5989 11.3997)" fill="black"/>
<rect width="3.20001" height="3.20001" transform="matrix(-1 0 0 1 9.59961 14.5997)" fill="black"/>
<rect width="3.20001" height="3.20001" transform="matrix(-1 0 0 1 31.9991 8.19995)" fill="black"/>
<rect width="3.20001" height="3.20001" transform="matrix(-1 0 0 1 31.9991 11.3997)" fill="black"/>
<rect width="3.20001" height="3.20001" transform="matrix(-1 0 0 1 28.7991 14.5997)" fill="black"/>
<rect width="3.20001" height="3.20001" transform="matrix(-1 0 0 1 25.5989 17.7997)" fill="black"/>
<rect x="3.19971" y="20.9995" width="3.20001" height="3.20001" fill="black"/>
<rect width="3.20001" height="3.20001" transform="matrix(-1 0 0 1 22.3992 20.9995)" fill="black"/>
<rect width="6.40002" height="3.20001" transform="matrix(-1 0 0 1 31.9991 20.9995)" fill="black"/>
<rect y="17.7997" width="3.20001" height="3.20001" fill="black"/>
</g>
</svg>
