<svg width="32" height="32" viewBox="0 0 32 32" fill="none" xmlns="http://www.w3.org/2000/svg">
<g opacity="0.5">
<rect x="3" y="26.8318" width="2.19021" height="2.19021" transform="rotate(-90.0019 3 26.8318)" fill="black"/>
<rect x="5.19019" y="24.6635" width="2.19021" height="2.19021" transform="rotate(-90.0019 5.19019 24.6635)" fill="black"/>
<rect x="7.35828" y="22.4952" width="2.19021" height="2.19021" transform="rotate(-90.0019 7.35828 22.4952)" fill="black"/>
<rect x="9.52643" y="20.327" width="2.19021" height="2.19021" transform="rotate(-90.0019 9.52643 20.327)" fill="black"/>
<rect x="11.6948" y="18.1587" width="2.19021" height="2.19021" transform="rotate(-90.0019 11.6948 18.1587)" fill="black"/>
<rect x="13.8626" y="15.9904" width="2.19021" height="2.19021" transform="rotate(-90.0019 13.8626 15.9904)" fill="black"/>
<rect x="16.031" y="13.8222" width="2.19021" height="2.19021" transform="rotate(-90.0019 16.031 13.8222)" fill="black"/>
<rect x="18.1989" y="11.6539" width="2.19021" height="2.19021" transform="rotate(-90.0019 18.1989 11.6539)" fill="black"/>
<rect x="20.3672" y="9.4856" width="2.19021" height="2.19021" transform="rotate(-90.0019 20.3672 9.4856)" fill="black"/>
<rect x="22.5353" y="7.31735" width="2.19021" height="2.19021" transform="rotate(-90.0019 22.5353 7.31735)" fill="black"/>
<rect x="24.6833" y="5.19025" width="2.19021" height="2.19021" transform="rotate(-90.0019 24.6833 5.19025)" fill="black"/>
<rect x="3.02234" y="29" width="2.19021" height="2.19021" transform="rotate(-90.0019 3.02234 29)" fill="black"/>
<rect x="26.8735" y="5.19025" width="2.19021" height="2.19021" transform="rotate(-90.0019 26.8735 5.19025)" fill="black"/>
<rect x="5.19043" y="28.9999" width="2.19021" height="2.19021" transform="rotate(-90.0019 5.19043 28.9999)" fill="black"/>
<rect x="7.35858" y="26.8317" width="2.19021" height="2.19021" transform="rotate(-90.0019 7.35858 26.8317)" fill="black"/>
<rect x="9.52667" y="24.6633" width="2.19021" height="2.19021" transform="rotate(-90.0019 9.52667 24.6633)" fill="black"/>
<rect x="11.6948" y="22.4951" width="2.19021" height="2.19021" transform="rotate(-90.0019 11.6948 22.4951)" fill="black"/>
<rect x="13.8629" y="20.3269" width="2.19021" height="2.19021" transform="rotate(-90.0019 13.8629 20.3269)" fill="black"/>
<rect x="16.031" y="18.1585" width="2.19021" height="2.19021" transform="rotate(-90.0019 16.031 18.1585)" fill="black"/>
<rect x="18.1991" y="15.9903" width="2.19021" height="2.19021" transform="rotate(-90.0019 18.1991 15.9903)" fill="black"/>
<rect x="20.3672" y="13.8221" width="2.19021" height="2.19021" transform="rotate(-90.0019 20.3672 13.8221)" fill="black"/>
<rect x="22.5355" y="11.6537" width="2.19021" height="2.19021" transform="rotate(-90.0019 22.5355 11.6537)" fill="black"/>
<rect x="24.7034" y="9.48547" width="2.19021" height="2.19021" transform="rotate(-90.0019 24.7034 9.48547)" fill="black"/>
<rect x="26.873" y="16.1302" width="10.9511" height="2.19021" transform="rotate(-90.0019 26.873 16.1302)" fill="black"/>
<rect x="24.6833" y="20.5218" width="4.38043" height="2.19021" transform="rotate(-90.0019 24.6833 20.5218)" fill="black"/>
<rect x="22.4932" y="27.1078" width="6.5859" height="2.19021" transform="rotate(-90.0019 22.4932 27.1078)" fill="black"/>
<rect x="20.3027" y="27.0925" width="2.19021" height="2.19021" transform="rotate(-90.0019 20.3027 27.0925)" fill="black"/>
<rect x="18.1127" y="27.0925" width="6.57064" height="2.19021" transform="rotate(-90.0019 18.1127 27.0925)" fill="black"/>
</g>
</svg>
